<?xml version="1.0" encoding="utf-8"?>
<!-- Generator: Adobe Illustrator 23.1.0, SVG Export Plug-In . SVG Version: 6.00 Build 0)  -->
<svg version="1.1" id="Слой_1" xmlns="http://www.w3.org/2000/svg" xmlns:xlink="http://www.w3.org/1999/xlink" x="0px" y="0px"
	 viewBox="0 0 303 512" style="enable-background:new 0 0 303 512;" xml:space="preserve">
<style type="text/css">
	.st0{fill:#555555;}
</style>
<g>
	<g>
		<g>
			<path class="st0" d="M9.7,236.5L237.6,8.7c5.3-5.3,12.3-8.2,19.8-8.2s14.5,2.9,19.8,8.2l16.8,16.8c10.9,10.9,10.9,28.7,0,39.6
				L102.6,256.4l191.5,191.5c5.3,5.3,8.2,12.3,8.2,19.8c0,7.5-2.9,14.5-8.2,19.8l-16.8,16.8c-5.3,5.3-12.3,8.2-19.8,8.2
				c-7.5,0-14.5-2.9-19.8-8.2L9.7,276.3c-5.3-5.3-8.2-12.4-8.2-19.9C1.5,248.9,4.4,241.8,9.7,236.5z"/>
		</g>
	</g>
</g>
</svg>
